<svg fill="none" height="361" viewBox="0 0 327 361" width="327" xmlns="http://www.w3.org/2000/svg">
    <g fill="#a3b28a">
    <path  d="m95.4385.247345c-8.878.791445-28.4578 4.026065-41.6028 6.882145-10.3232 2.2023-33.4473 8.08651-38.6777 9.80711-8.56834 2.8217-13.17939 5.4369-14.487004 8.1553-.963504 1.9959-.894682 3.1314.240875 5.5746.619399 1.2388 1.066739 2.9249 1.169969 4.1981.17205 1.755.58498 2.8905 2.37435 6.194 3.47549 6.6069 5.29927 9.1533 17.51511 24.879 8.3963 10.7706 12.0094 15.5881 21.1627 28.0448 3.7163 5.0928 7.8456 10.5296 9.1188 12.0436 5.7467 6.848 15.0376 16.104 18.3754 18.341 1.2732.86 1.3421.895 1.7894.241.6538-.86.6194-1.755-.2065-4.405-1.6517-5.333-7.2607-17.343-11.0803-23.6398-3.4755-5.781-16.5172-23.5714-29.6277-40.3639-8.6715-11.1491-10.5985-13.7299-10.4265-13.9019.3097-.3097 33.5162 8.2586 47.6935 12.3191 41.6719 11.9405 75.4629 25.8769 100.7889 41.4994 27.185 16.7921 53.165 40.5011 81.898 74.7751 20.062 23.881 30.075 39.159 39.469 60.219 9.188 20.681 20.681 53.612 25.086 72.09 3.648 15.21 7.398 38.368 7.398 45.56 0 3.992-.55 6.125-2.236 8.465-1.687 2.409-1.618 3.51.172 2.856 1.514-.516 3.613-3.028 4.439-5.299 1.548-4.095 1.617-10.254.206-23.606-2.581-24.466-5.127-37.301-11.837-59.53-8.844-29.215-17.859-51.548-27.735-68.753-11.597-20.268-35.96-50.55-59.875-74.5-33.998-34.0665-65.656-53.9903-115.345-72.641-17.5843-6.5725-45.5259-15.2784-63.5228-19.7862-1.6861-.4129-2.9249-.8603-2.7529-.9979.1377-.1033 2.925-.7915 6.1252-1.5141 8.8436-1.9614 20.8873-5.0928 28.561-7.3983 10.4609-3.1314 29.9715-10.2201 31.2105-11.3212.826-.6882 2.719-4.5422 2.478-4.95516-.104-.17205.034-.58499.309-.89468.929-1.10117 1.583-5.4025.964-6.57248-.241-.37851-.826-.82587-1.342-.92908-.516-.13766-1.205-.481777-1.583-.791469-.516-.447327-1.652-.550568-6.71-.58496127-3.338-.03442383-7.605.06881717-9.4975.24087527z"/>
    </g>
</svg>
